<?xml version="1.0" encoding="iso-8859-1"?>
<!-- Generator: Adobe Illustrator 18.0.0, SVG Export Plug-In . SVG Version: 6.00 Build 0)  -->
<!DOCTYPE svg PUBLIC "-//W3C//DTD SVG 1.1//EN" "http://www.w3.org/Graphics/SVG/1.1/DTD/svg11.dtd">
<svg version="1.1" id="Capa_1" xmlns="http://www.w3.org/2000/svg" xmlns:xlink="http://www.w3.org/1999/xlink" x="0px" y="0px"
	 viewBox="0 0 305.755 305.755" style="enable-background:new 0 0 305.755 305.755;" xml:space="preserve">
<g>
	<path d="M294.11,186.091h-16.382v-20.135c0-17.582-14.302-31.884-31.884-31.884h-35.632c-11.664,8.405-25.077,13.047-38.876,13.047
		c-13.814,0-27.306-4.613-38.986-13.047H81.773c21.345-16.286,38.282-21.332,55.071-25.061c20.624-4.456,48.994-23.246,60.885-34.5
		c0.232-0.22,0.59-0.239,0.844-0.044c0.254,0.194,0.329,0.545,0.177,0.827c-10.108,18.765-28.742,37.343-54.049,49.232
		c-1.265,0.682-2.578,1.175-3.882,1.702c24.968,16.707,56.932,11.586,77.678-16.029c13.719-18.256,16.355-56.799,16.42-82.905
		c0.009-3.388-2.003-6.455-5.115-7.797c-3.112-1.341-6.724-0.699-9.182,1.634c-10.586,10.048-28.92,20.05-59.964,20.05
		c-30.344,0-47.949,31.225-40.075,58.698c-0.304,0.059-0.573,0.064-0.891,0.14c-21.729,3.729-38.785,18.323-47.307,34.054h-40.5
		C14.302,134.072,0,148.375,0,165.956v89.108c0,17.582,14.302,31.885,31.884,31.885h213.959c17.582,0,31.884-14.303,31.884-31.885
		v-20.139h16.382c6.435,0,11.645-5.211,11.645-11.64v-25.55C305.755,191.301,300.545,186.091,294.11,186.091z M257.344,255.065
		c0,6.34-5.16,11.501-11.501,11.501H31.884c-6.341,0-11.5-5.162-11.5-11.501v-89.108c0-6.34,5.16-11.501,11.5-11.501h213.959
		c6.341,0,11.501,5.16,11.501,11.501V255.065z"/>
	<path d="M62.927,167.196H39.847c-3.245,0-5.873,2.628-5.873,5.872v74.887c0,3.244,2.628,5.873,5.873,5.873h23.081
		c3.245,0,5.873-2.628,5.873-5.873v-74.887C68.8,169.823,66.172,167.196,62.927,167.196z"/>
	<path d="M113.886,167.196h-23.08c-3.246,0-5.872,2.628-5.872,5.872v74.887c0,3.244,2.627,5.873,5.872,5.873h23.08
		c3.245,0,5.873-2.628,5.873-5.873v-74.887C119.759,169.823,117.131,167.196,113.886,167.196z"/>
	<path d="M164.846,167.196h-23.081c-3.245,0-5.873,2.628-5.873,5.872v74.887c0,3.244,2.627,5.873,5.873,5.873h23.081
		c3.245,0,5.872-2.628,5.872-5.873v-74.887C170.718,169.823,168.09,167.196,164.846,167.196z"/>
</g>
<g>
</g>
<g>
</g>
<g>
</g>
<g>
</g>
<g>
</g>
<g>
</g>
<g>
</g>
<g>
</g>
<g>
</g>
<g>
</g>
<g>
</g>
<g>
</g>
<g>
</g>
<g>
</g>
<g>
</g>
</svg>
