<?xml version="1.0" encoding="iso-8859-1"?>
<!-- Generator: Adobe Illustrator 18.0.0, SVG Export Plug-In . SVG Version: 6.00 Build 0)  -->
<!DOCTYPE svg PUBLIC "-//W3C//DTD SVG 1.1//EN" "http://www.w3.org/Graphics/SVG/1.1/DTD/svg11.dtd">
<svg version="1.1" id="Capa_1" xmlns="http://www.w3.org/2000/svg" xmlns:xlink="http://www.w3.org/1999/xlink" x="0px" y="0px"
	 viewBox="0 0 303.327 303.327" style="enable-background:new 0 0 303.327 303.327;" xml:space="preserve">
<g>
	<path d="M172.631,211.084c-17.389-3.674-34.588-0.419-48.851,7.808c-9.732-13.297-24.135-23.235-41.523-26.908
		c-37.423-7.912-74.2,16.02-82.111,53.458c-0.031,0.144-0.06,0.289-0.09,0.433c-0.259,1.244,0.397,2.503,1.563,3.015
		c1.165,0.514,2.528,0.146,3.274-0.885c14.909-20.499,41.285-25.346,69.611-19.359c17.388,3.674,31.8,13.616,41.524,26.908
		c14.263-8.221,31.472-11.48,48.859-7.809c28.326,5.982,50.472,21.086,55.826,45.858c0.269,1.245,1.363,2.13,2.638,2.135
		c1.274,0.006,2.368-0.88,2.646-2.119c0.031-0.145,0.06-0.283,0.09-0.423C234.001,255.753,210.054,218.99,172.631,211.084z"/>
	<path d="M269.374,142.83c-13.557-6.32-28.276-6.917-41.544-2.886c-5.453-12.75-15.368-23.639-28.924-29.959
		c-29.191-13.605-63.897-0.97-77.504,28.222c0,0-0.009,0.009-0.009,0.02c-0.469,1-0.169,2.195,0.717,2.861
		c0.875,0.667,2.109,0.632,2.945-0.085c16.103-13.755,38.538-12.675,60.523-2.429c13.557,6.321,23.479,17.209,28.924,29.96
		c13.258-4.033,27.988-3.435,41.545,2.881c22.424,10.455,37.841,27.391,37.024,49.188c-0.029,0.971,0.616,1.831,1.553,2.075
		c0.945,0.238,1.921-0.214,2.349-1.08c0.209-0.423,0.418-0.847,0.616-1.273C311.196,191.132,298.556,156.431,269.374,142.83z"/>
	<path d="M94.51,37.677c0.606,0.254,1.313,0.05,1.702-0.492c7.256-10.366,20.402-13.103,34.655-10.466
		c8.789,1.622,16.164,6.439,21.22,13.003c7.066-4.324,15.686-6.186,24.484-4.559c14.253,2.633,25.539,9.888,28.625,22.165
		c0.159,0.643,0.747,1.086,1.403,1.06c0.657-0.019,1.215-0.497,1.334-1.149c3.503-18.931-9.008-37.12-27.939-40.618
		c-8.798-1.623-17.407,0.233-24.475,4.558c-5.056-6.564-12.441-11.381-21.229-13.003c-18.941-3.499-37.125,9.012-40.629,27.948
		C93.544,36.776,93.892,37.424,94.51,37.677z"/>
	<path d="M258.933,35.328c5.025,4.519,7.872,10.541,8.54,16.771c6.259,0.005,12.559,2.215,17.596,6.739
		c8.48,7.628,12.909,17.223,9.296,26.728c-0.139,0.354,0,0.752,0.309,0.956c0.319,0.204,0.737,0.159,1.006-0.11
		c0.298-0.302,0.597-0.616,0.886-0.939c9.733-10.825,8.858-27.496-1.971-37.24c-5.027-4.523-11.316-6.728-17.577-6.733
		c-0.666-6.225-3.533-12.251-8.55-16.776c-10.828-9.744-27.5-8.863-37.244,1.961c-0.338,0.383-0.367,0.936-0.069,1.343
		c0.288,0.403,0.825,0.547,1.284,0.349C241.216,24.564,250.782,27.998,258.933,35.328z"/>
</g>
<g>
</g>
<g>
</g>
<g>
</g>
<g>
</g>
<g>
</g>
<g>
</g>
<g>
</g>
<g>
</g>
<g>
</g>
<g>
</g>
<g>
</g>
<g>
</g>
<g>
</g>
<g>
</g>
<g>
</g>
</svg>
