<?xml version="1.0" encoding="iso-8859-1"?>
<!-- Generator: Adobe Illustrator 18.0.0, SVG Export Plug-In . SVG Version: 6.00 Build 0)  -->
<!DOCTYPE svg PUBLIC "-//W3C//DTD SVG 1.1//EN" "http://www.w3.org/Graphics/SVG/1.1/DTD/svg11.dtd">
<svg version="1.1" id="Capa_1" xmlns="http://www.w3.org/2000/svg" xmlns:xlink="http://www.w3.org/1999/xlink" x="0px" y="0px"
	 viewBox="0 0 306.184 306.184" style="enable-background:new 0 0 306.184 306.184;" xml:space="preserve">
<g>
	<path d="M225.614,186.062c22.593-5.852,27.173-7.809,19.529-27.874c5.493-25.286-5.525-41.065-20.763-45.829
		c0.408-2.402,0.725-4.892,0.916-7.469c1.104-15.413-6.827-40.857-10.123-50.641c-0.238-0.697-0.865-1.186-1.592-1.239
		c-0.736-0.056-1.424,0.339-1.763,0.989c-2.379,4.664-6.509,13.139-10.151,22.365c-5.941-9.361-13.605-18.612-17.686-23.31
		c-0.488-0.558-1.256-0.767-1.951-0.538c-0.697,0.234-1.194,0.861-1.245,1.593c-0.716,9.356-1.881,31.919,2.27,44.47
		c2.557,7.719,6.21,14.242,10.081,18.751c-1.582,1.08-3.135,2.21-4.537,3.509c-3.305,3.065-8.182,3.688-12.144,1.553
		c-10.221-5.489-21.847-8.793-34.188-8.793c-40.698,0-73.682,35.955-73.682,67.734c0,3.259,0.428,6.177,1.094,8.902
		c-3.722,1.279-8.957,1.424-15.734-2.717c-1.075-0.656-2.429-0.616-3.464,0.095c-1.045,0.712-1.563,1.971-1.334,3.206
		c1.971,10.614,7.912,28.255,25.509,24.891c1.216,4.266,4.978,7.45,9.636,7.45h133.35c5.633,0,10.192-4.563,10.192-10.191
		c0-5.628-4.56-10.191-10.192-10.191h-9.645C208.138,200.992,217.789,188.088,225.614,186.062z"/>
	<path d="M153.098,281.386c-60.713,0-111.583-42.43-124.83-99.156H5.693c13.616,68.964,74.509,121.152,147.404,121.152
		c72.895,0,133.788-52.188,147.403-121.152h-22.573C264.681,238.956,213.811,281.386,153.098,281.386z"/>
	<path d="M153.098,24.798c60.713,0,111.583,42.43,124.83,99.156h22.573C286.886,54.99,225.993,2.802,153.098,2.802
		C80.202,2.802,19.31,54.99,5.693,123.954h22.574C41.515,67.228,92.385,24.798,153.098,24.798z"/>
	<path d="M292.39,139.292c-7.625,0-13.805,6.18-13.805,13.799c0,7.624,6.18,13.806,13.805,13.806
		c7.624,0,13.794-6.182,13.794-13.806C306.184,145.472,300.014,139.292,292.39,139.292z"/>
	<path d="M27.601,153.091c0-7.619-6.171-13.799-13.795-13.799C6.182,139.292,0,145.472,0,153.091
		c0,7.624,6.182,13.806,13.806,13.806C21.43,166.897,27.601,160.715,27.601,153.091z"/>
</g>
<g>
</g>
<g>
</g>
<g>
</g>
<g>
</g>
<g>
</g>
<g>
</g>
<g>
</g>
<g>
</g>
<g>
</g>
<g>
</g>
<g>
</g>
<g>
</g>
<g>
</g>
<g>
</g>
<g>
</g>
</svg>
