<?xml version="1.0" encoding="iso-8859-1"?>
<!-- Generator: Adobe Illustrator 18.0.0, SVG Export Plug-In . SVG Version: 6.00 Build 0)  -->
<!DOCTYPE svg PUBLIC "-//W3C//DTD SVG 1.1//EN" "http://www.w3.org/Graphics/SVG/1.1/DTD/svg11.dtd">
<svg version="1.1" id="Capa_1" xmlns="http://www.w3.org/2000/svg" xmlns:xlink="http://www.w3.org/1999/xlink" x="0px" y="0px"
	 viewBox="0 0 287.633 287.633" style="enable-background:new 0 0 287.633 287.633;" xml:space="preserve">
<g>
	<path d="M286.94,2.497c0.074-1.161-0.714-2.201-1.852-2.445c-1.138-0.243-2.284,0.384-2.691,1.474
		c-18.249,48.854-51.624,64.175-64.57,82.203c-7.679,11.147-12.734,21.964-12.734,39.562l-60.982-0.035l16.422,16.423h21.946v21.94
		v0.105l25.863,25.684l0.005,0.005h7.902c7.833,0,14.183-6.349,14.183-14.188v-35.751c0-6.641-4.875-12.775-11.824-13.944
		C218.609,77.402,280.648,101.439,286.94,2.497z"/>
	<path d="M249.373,99.858c-9.279,6.288-15.219,13.079-17.26,18.806c-0.002-0.002-0.004-0.002-0.006-0.002
		c4.259,11.448,6.691,23.775,6.691,36.688c0,18.074-4.573,35.094-12.595,49.994c-2.106,3.911-4.504,7.628-7.072,11.226
		L71.748,69.191c3.598-2.563,7.314-4.967,11.226-7.072c14.899-8.021,31.925-12.595,49.999-12.595
		c27.994,0,53.431,10.991,72.377,28.81c0.487-0.737,0.978-1.467,1.472-2.184l0.075-0.108l0.076-0.105
		c4.33-6.03,9.92-11.255,16.364-17.037c-23.652-22.178-55.386-35.83-90.364-35.83c-61.968,0-113.837,42.668-128.199,100.187
		c-0.065,0.254-0.135,0.503-0.195,0.751c-2.448,10.063-3.891,20.524-3.891,31.343c0,10.818,1.443,21.279,3.891,31.342
		c0.06,0.253,0.13,0.502,0.195,0.751c14.362,57.523,66.227,100.191,128.199,100.191c73.055,0,132.28-59.224,132.28-132.284
		c0-20.565-4.736-40.011-13.121-57.368C251.195,98.622,250.274,99.247,249.373,99.858z M182.962,248.583
		c-14.894,8.022-31.915,12.596-49.989,12.596c-47.167,0-87.193-31.028-100.824-73.737h89.672l-16.428-16.422H28.437
		c-0.766-5.126-1.294-10.332-1.294-15.671c0-5.34,0.528-10.546,1.294-15.671h45.614l-16.422-16.423H32.15
		c1.99-6.23,4.533-12.217,7.584-17.896c2.11-3.912,4.508-7.629,7.071-11.227l147.388,147.378
		C190.591,244.08,186.874,246.478,182.962,248.583z"/>
</g>
<g>
</g>
<g>
</g>
<g>
</g>
<g>
</g>
<g>
</g>
<g>
</g>
<g>
</g>
<g>
</g>
<g>
</g>
<g>
</g>
<g>
</g>
<g>
</g>
<g>
</g>
<g>
</g>
<g>
</g>
</svg>
