<?xml version="1.0" encoding="iso-8859-1"?>
<!-- Generator: Adobe Illustrator 18.0.0, SVG Export Plug-In . SVG Version: 6.00 Build 0)  -->
<!DOCTYPE svg PUBLIC "-//W3C//DTD SVG 1.1//EN" "http://www.w3.org/Graphics/SVG/1.1/DTD/svg11.dtd">
<svg version="1.1" id="Capa_1" xmlns="http://www.w3.org/2000/svg" xmlns:xlink="http://www.w3.org/1999/xlink" x="0px" y="0px"
	 viewBox="0 0 306.742 306.742" style="enable-background:new 0 0 306.742 306.742;" xml:space="preserve">
<g>
	<path d="M231.783,39.107c0.005,0.12,0.047,0.237,0.047,0.357c0,7.335-3.691,14.07-9.874,18.018L200.947,70.9
		c34.108,17.934,54.716,54.106,54.716,90.479c0,56.403-45.889,102.291-102.292,102.291c-53.259,0-102.293-43.038-102.293-102.291
		c0-43.508,27.35-80.658,65.721-95.416c0,0,0.005,0.02,0.011,0.031c11.918-4.655,24.989-6.909,36.556-6.909v11.55
		c0,6.532,7.238,10.497,12.739,6.978l48.806-31.167c5.104-3.26,5.092-10.709,0.006-13.965L166.105,1.311
		c-5.478-3.505-12.739,0.428-12.739,6.976v7.729c-15.987,0-33.207,3.113-47.461,8.128c0,0.01,0.005,0.021,0.011,0.032
		C48.976,43.86,8.008,97.751,8.008,161.379c0,80.277,65.084,145.362,145.363,145.362c80.279,0,145.363-65.085,145.363-145.362
		C298.734,110.006,272.015,64.959,231.783,39.107z"/>
	<path d="M144.019,206.822c6.921,2.985,14.034,4.523,21.018,4.523c19.686,0,38.307-11.68,48.461-34.002
		c9.896-21.744,1.986-63.929-3.56-86.98c-0.463-1.924-2.081-3.353-4.047-3.574c-1.966-0.222-3.863,0.81-4.741,2.584
		c-6.252,12.622-21.05,29.742-55.989,36.998c-28.055,7.835-35.052,40.227-22.692,62.021c-0.28,0.124-0.543,0.192-0.831,0.336
		c-25.193,12.891-33.448,29.569-36.117,40.035c-0.21,0.823,0.214,1.676,0.997,2.005c0.783,0.329,1.688,0.036,2.131-0.689
		c5.402-8.864,16.543-22.619,37.217-31.981c11.042-5,43.742-23.57,59.314-45.766c0.359-0.512,1.037-0.688,1.6-0.414
		c0.562,0.273,0.843,0.915,0.663,1.514C178.41,183.347,148.701,203.893,144.019,206.822z"/>
</g>
<g>
</g>
<g>
</g>
<g>
</g>
<g>
</g>
<g>
</g>
<g>
</g>
<g>
</g>
<g>
</g>
<g>
</g>
<g>
</g>
<g>
</g>
<g>
</g>
<g>
</g>
<g>
</g>
<g>
</g>
</svg>
