<?xml version="1.0" encoding="iso-8859-1"?>
<!-- Generator: Adobe Illustrator 18.0.0, SVG Export Plug-In . SVG Version: 6.00 Build 0)  -->
<!DOCTYPE svg PUBLIC "-//W3C//DTD SVG 1.1//EN" "http://www.w3.org/Graphics/SVG/1.1/DTD/svg11.dtd">
<svg version="1.1" id="Capa_1" xmlns="http://www.w3.org/2000/svg" xmlns:xlink="http://www.w3.org/1999/xlink" x="0px" y="0px"
	 viewBox="0 0 305.756 305.756" style="enable-background:new 0 0 305.756 305.756;" xml:space="preserve">
<g>
	<path d="M303.297,75.612c0-0.057-0.004-0.112-0.005-0.169c-0.123-7.849-6.52-14.174-14.397-14.174c-2.777,0-5.37,0.788-7.571,2.149
		c-1.306-1.326-3.12-2.149-5.129-2.149c-3.697,0-6.74,2.787-7.15,6.375c-1.499-0.353-3.102-0.547-4.773-0.547
		c-2.272,0-4.427,0.352-6.363,0.981c-1.755-2.795-4.856-4.659-8.399-4.659c-5.267,0-9.563,4.106-9.89,9.291
		c-6.28,2.46-10.73,8.569-10.73,15.722c0,9.326,7.559,16.885,16.884,16.885c3.537,0,6.817-1.089,9.529-2.947
		c0.641-0.171,1.262-0.369,1.867-0.59c1.254,0.297,2.559,0.459,3.904,0.459c2.494,0,4.859-0.545,6.99-1.516
		c3.193,3.52,7.803,5.729,12.929,5.729c9.638,0,17.451-7.813,17.451-17.452c0-0.816-0.06-1.618-0.169-2.405
		c3.073-2.641,5.023-6.554,5.023-10.924c0-0.014,0-0.026,0-0.04C303.297,75.625,303.297,75.618,303.297,75.612z"/>
	<path d="M270.253,159.914v-39.816c0-6.19-5.017-11.207-11.206-11.207h-30.158v43.276l36.019,93.711h22.075
		c3.693,0,7.147-1.816,9.237-4.862c2.091-3.045,2.549-6.921,1.225-10.365L270.253,159.914z"/>
	<path d="M213.6,155.003V89.338c0-6.191-5.017-11.207-11.207-11.207h-49.794c-6.19,0-11.207,5.016-11.207,11.207v65.689
		l-6.778,17.637v0.737l42.718,111.119h69.741c3.692,0,7.146-1.816,9.236-4.861c2.09-3.046,2.548-6.923,1.224-10.366L213.6,155.003z"
		/>
	<path d="M119.326,176.237v-65.665c0-6.19-5.017-11.207-11.207-11.207H58.325c-6.19,0-11.207,5.017-11.207,11.207v65.69
		L3.205,290.527c-1.324,3.444-0.866,7.326,1.225,10.365c2.09,3.047,5.543,4.863,9.235,4.863h139.133
		c3.692,0,7.146-1.816,9.237-4.863c2.09-3.045,2.548-6.921,1.224-10.365L119.326,176.237z"/>
	<path d="M40.489,87.268c10.897,0,20.244-5.624,25.031-13.78c5.285,2.862,11.874,4.644,19.13,4.644
		c15.219,0,27.818-7.52,30.446-17.423c4.1,1.995,8.977,3.181,14.232,3.181c5.076,0,9.774-1.126,13.784-2.991
		c4.938,6.28,13.428,10.445,23.111,10.445c11.625,0,21.528-5.997,25.62-14.461c4.966-0.051,9.515-1.808,13.216-4.673
		c2.42,5.39,8.779,9.261,16.334,9.261c9.614,0,17.408-6.25,17.408-13.964c0-1.056-0.17-2.076-0.449-3.065
		c7.794-0.335,13.984-5.056,13.984-10.894c0-5.923-6.37-10.715-14.323-10.919c0.459-1.538,0.788-3.119,0.788-4.792
		c0-9.849-8.561-17.836-19.11-17.836c-8.6,0-15.795,5.345-18.194,12.64c-2.985-1.518-6.31-2.448-9.863-2.448
		c-9.754,0-17.976,6.46-21.11,15.447c-1.403-0.188-2.827-0.362-4.3-0.362c-6.837,0-13.009,2.144-17.836,5.568
		c-4.786-3.803-11.525-6.206-19.06-6.206c-1.215,0-2.368,0.149-3.533,0.264C125.547,13.71,114.36,4.688,100.554,4.688
		c-7.216,0-13.685,2.487-18.293,6.434C76.897,4.398,68.606,0,59.171,0C42.987,0,29.869,12.74,29.869,28.45
		c0,3.051,0.627,5.932,1.543,8.686C20.175,40.588,12.033,50.118,12.033,61.47C12.033,75.717,24.773,87.268,40.489,87.268z
		 M214.049,34.791c0.04,0.01,0.09,0.024,0.14,0.04c-0.05,0.014-0.1,0.044-0.149,0.063C214.039,34.86,214.049,34.825,214.049,34.791z
		"/>
</g>
<g>
</g>
<g>
</g>
<g>
</g>
<g>
</g>
<g>
</g>
<g>
</g>
<g>
</g>
<g>
</g>
<g>
</g>
<g>
</g>
<g>
</g>
<g>
</g>
<g>
</g>
<g>
</g>
<g>
</g>
</svg>
