<?xml version="1.0" encoding="iso-8859-1"?>
<!-- Generator: Adobe Illustrator 18.0.0, SVG Export Plug-In . SVG Version: 6.00 Build 0)  -->
<!DOCTYPE svg PUBLIC "-//W3C//DTD SVG 1.1//EN" "http://www.w3.org/Graphics/SVG/1.1/DTD/svg11.dtd">
<svg version="1.1" id="Capa_1" xmlns="http://www.w3.org/2000/svg" xmlns:xlink="http://www.w3.org/1999/xlink" x="0px" y="0px"
	 viewBox="0 0 305.755 305.755" style="enable-background:new 0 0 305.755 305.755;" xml:space="preserve">
<path d="M160.393,0C-14.43,0,42.441,156.591,42.441,156.591c0.666,2.284,1.482,4.264,2.429,5.981
	c21.11,38.135,28.894,82.266,21.996,125.308v0.024c-0.717,4.459,0.558,9.003,3.483,12.438c2.927,3.434,7.216,5.413,11.725,5.413
	h74.408c6.221,0,11.834-3.737,14.222-9.479l8.45-20.26c3.007-7.201,10.004-11.934,17.807-12.037
	c23.341-0.309,41.853-5.689,54.532-10.988c12.004-5.021,19.955-16.606,20.345-29.61C277.928,17.259,193.427-0.02,160.393,0z
	 M205.506,127.171c-1.731,25.248-15.5,43.277-34.522,50.403c-6.75,2.529-14.181,3.617-21.949,3.238
	c3.464-4.525,24.737-35.137,22.635-67.317c-0.042-0.644-0.546-1.162-1.188-1.223c-0.643-0.06-1.234,0.354-1.396,0.979
	c-7.014,27.088-31.894,56.873-40.754,65.702c-16.591,16.532-22.377,33.858-24.389,44.381c-0.164,0.86-0.934,1.472-1.81,1.438
	c-0.876-0.035-1.595-0.706-1.689-1.577c-1.21-11.08,0.729-30.188,20.41-51.766c0.226-0.243,0.456-0.404,0.682-0.625
	c-19.834-16.588-24.799-50.424-0.522-68.153c31.138-19.661,39.24-41.563,40.713-56.025c0.206-2.032,1.667-3.716,3.647-4.214
	c1.98-0.498,4.06,0.297,5.204,1.988C184.282,64.67,207.199,102.574,205.506,127.171z"/>
<g>
</g>
<g>
</g>
<g>
</g>
<g>
</g>
<g>
</g>
<g>
</g>
<g>
</g>
<g>
</g>
<g>
</g>
<g>
</g>
<g>
</g>
<g>
</g>
<g>
</g>
<g>
</g>
<g>
</g>
</svg>
