<?xml version="1.0" encoding="iso-8859-1"?>
<!-- Generator: Adobe Illustrator 18.0.0, SVG Export Plug-In . SVG Version: 6.00 Build 0)  -->
<!DOCTYPE svg PUBLIC "-//W3C//DTD SVG 1.1//EN" "http://www.w3.org/Graphics/SVG/1.1/DTD/svg11.dtd">
<svg version="1.1" id="Capa_1" xmlns="http://www.w3.org/2000/svg" xmlns:xlink="http://www.w3.org/1999/xlink" x="0px" y="0px"
	 viewBox="0 0 291.03 291.03" style="enable-background:new 0 0 291.03 291.03;" xml:space="preserve">
<path d="M252.44,6.882c-1.165-3.856-4.597-6.588-8.616-6.859c-4.019-0.272-7.79,1.973-9.462,5.637
	c-10.611,23.254-35.849,54.094-95.872,70.5c-11.327,3.927-20.484,10.083-27.689,17.612c7.972,10.093,14.283,20.587,16.831,30.675
	c5.454,21.598,2.25,42.499-9.033,58.847c-1.467,2.13-3.075,4.131-4.767,6.047c-9.456,10.694-22.286,17.955-37.145,21.021
	c-10.167,9.356-17.903,19.888-23.429,32.88c-0.324-2.593-0.567-5.41-0.577-8.446c0.241-14.228,5.599-28.564,8.564-33.605
	c5.609-10.219,21.066-32.59,15.208-77.967c7.68,22.081,12.601,44.294,5.619,66.516c-0.812,2.842-1.876,5.549-2.882,8.286
	c29.158-8.48,46.058-36.701,37.448-70.8c-5.389-21.354-31.934-46.535-52-63.054c-2.946-2.425-7.042-2.894-10.46-1.196
	c-3.418,1.697-5.521,5.244-5.368,9.057c0.589,14.662-3.936,34.796-23.346,58.249c-18.473,25.628-2.02,57.866,23.439,67.376
	c-12.978,19.778-9.662,41.876,0.702,55.059c-2.619,8.179-4.295,15.66-4.763,24.803c-0.398,7.987,0.493,12.556,0.493,12.556
	c0.253,1.165,1.814,1.293,2.259,0.228c6.762-15.885,18.924-36.586,32.89-51.337c11.048-11.674,21.022-18.987,33.124-27.082
	c18.734-10.1,63.679-23.458,101.615-94.33c0.229,0.458,0.333,0.966,0.244,1.469c-2.428,13.484-10.613,34.782-25.998,56.951
	c-16.452,20.863-24.299,27.911-46.281,41.981c-1.021,0.607-2.11,1.134-3.155,1.707c50.601,21.359,105.372-0.826,127.642-59.046
	C282.758,121.176,265.018,48.499,252.44,6.882z"/>
<g>
</g>
<g>
</g>
<g>
</g>
<g>
</g>
<g>
</g>
<g>
</g>
<g>
</g>
<g>
</g>
<g>
</g>
<g>
</g>
<g>
</g>
<g>
</g>
<g>
</g>
<g>
</g>
<g>
</g>
</svg>
